<svg width="40" height="40" viewBox="0 0 40 40" fill="none" xmlns="http://www.w3.org/2000/svg">
<circle cx="20" cy="20" r="20" fill="#F3F3F3"/>
<path d="M27.4559 16.9208C27.4475 16.2897 27.3293 15.6648 27.1067 15.0741C26.9137 14.5759 26.6188 14.1235 26.241 13.7457C25.8632 13.3679 25.4108 13.073 24.9126 12.88C24.3295 12.6611 23.7135 12.5427 23.0909 12.53C22.2892 12.4941 22.0351 12.4841 20.0001 12.4841C17.9651 12.4841 17.7042 12.4841 16.9084 12.53C16.286 12.5428 15.6703 12.6612 15.0876 12.88C14.5893 13.0729 14.1367 13.3677 13.7589 13.7455C13.3811 14.1233 13.0863 14.5758 12.8934 15.0741C12.6741 15.6567 12.556 16.2726 12.5442 16.895C12.5084 17.6975 12.4976 17.9516 12.4976 19.9866C12.4976 22.0216 12.4976 22.2816 12.5442 23.0783C12.5567 23.7016 12.6742 24.3166 12.8934 24.9008C13.0866 25.3989 13.3816 25.8513 13.7596 26.2289C14.1375 26.6066 14.5901 26.9013 15.0884 27.0941C15.6696 27.3218 16.2854 27.4486 16.9092 27.4691C17.7117 27.505 17.9659 27.5158 20.0009 27.5158C22.0359 27.5158 22.2967 27.5158 23.0926 27.4691C23.7152 27.4569 24.3312 27.3388 24.9142 27.12C25.4123 26.9267 25.8646 26.6318 26.2424 26.254C26.6202 25.8762 26.9151 25.4239 27.1084 24.9258C27.3276 24.3425 27.4451 23.7275 27.4576 23.1033C27.4934 22.3016 27.5042 22.0475 27.5042 20.0116C27.5026 17.9766 27.5026 17.7183 27.4559 16.9208ZM19.9951 23.835C17.8667 23.835 16.1426 22.1108 16.1426 19.9825C16.1426 17.8541 17.8667 16.13 19.9951 16.13C21.0168 16.13 21.9967 16.5359 22.7192 17.2583C23.4417 17.9808 23.8476 18.9607 23.8476 19.9825C23.8476 21.0042 23.4417 21.9841 22.7192 22.7066C21.9967 23.4291 21.0168 23.835 19.9951 23.835ZM24.0009 16.8858C23.8829 16.8859 23.766 16.8627 23.657 16.8176C23.5479 16.7725 23.4489 16.7064 23.3654 16.6229C23.282 16.5395 23.2158 16.4404 23.1707 16.3314C23.1256 16.2223 23.1025 16.1055 23.1026 15.9875C23.1026 15.8695 23.1258 15.7528 23.1709 15.6438C23.216 15.5349 23.2822 15.4359 23.3656 15.3525C23.4489 15.2692 23.5479 15.203 23.6569 15.1579C23.7658 15.1128 23.8826 15.0895 24.0005 15.0895C24.1184 15.0895 24.2352 15.1128 24.3441 15.1579C24.453 15.203 24.552 15.2692 24.6354 15.3525C24.7188 15.4359 24.7849 15.5349 24.83 15.6438C24.8752 15.7528 24.8984 15.8695 24.8984 15.9875C24.8984 16.4841 24.4967 16.8858 24.0009 16.8858Z" fill="white"/>
<path d="M19.9952 22.485C21.3773 22.485 22.4977 21.3646 22.4977 19.9825C22.4977 18.6004 21.3773 17.48 19.9952 17.48C18.6131 17.48 17.4927 18.6004 17.4927 19.9825C17.4927 21.3646 18.6131 22.485 19.9952 22.485Z" fill="white"/>
</svg>
