<svg width="40" height="40" viewBox="0 0 40 40" fill="none" xmlns="http://www.w3.org/2000/svg">
<g clip-path="url(#clip0_130_1680)">
<path d="M10.5723 34.2584L11.2262 34.5816C13.9512 36.1975 17.0029 36.9517 20.0548 36.9517C29.6462 36.9517 37.4937 29.1951 37.4937 19.7148C37.4937 15.1901 35.6407 10.7731 32.371 7.54116C29.1012 4.30919 24.7413 2.47784 20.0548 2.47784C10.4634 2.47784 2.61569 10.2344 2.72476 19.8226C2.72476 23.0544 3.70569 26.1787 5.34054 28.8718L5.77648 29.5183L4.03272 35.8744L10.5723 34.2584Z" fill="#00E676"/>
<g filter="url(#filter0_d_130_1680)">
<path d="M32.9128 5.59458C29.349 1.96853 24.4226 0 19.3913 0C8.69999 0 0.104884 8.59907 0.209618 19.063C0.209618 22.3783 1.15298 25.5902 2.72534 28.491L0 38.3333L10.1673 35.7432C12.9974 37.2974 16.1418 38.0226 19.2865 38.0226C29.8731 38.0226 38.4682 29.4234 38.4682 18.9596C38.4682 13.8829 36.4766 9.11712 32.9129 5.59458H32.9128ZM19.3913 34.8109C16.5612 34.8109 13.7311 34.0859 11.3203 32.6354L10.6914 32.3245L4.61205 33.8785L6.18427 27.9732L5.76503 27.3515C1.15298 19.9957 3.35419 10.2567 10.9011 5.69811C18.4479 1.13962 28.196 3.31534 32.8081 10.7748C37.42 18.2342 35.2187 27.8694 27.672 32.428C25.261 33.982 22.3262 34.8108 19.3913 34.8108V34.8109ZM28.6152 23.3111L27.4623 22.793C27.4623 22.793 25.7853 22.0678 24.7371 21.5497C24.6322 21.5497 24.5275 21.4461 24.4226 21.4461C24.1081 21.4461 23.8984 21.5497 23.6888 21.6534C23.6888 21.6534 23.5841 21.7569 22.1166 23.4146C22.0117 23.6218 21.8021 23.7254 21.5925 23.7254H21.4876C21.3829 23.7254 21.1733 23.6218 21.0684 23.5183L20.5443 23.3111C19.3913 22.793 18.3432 22.1713 17.5046 21.3425C17.2949 21.1353 16.9804 20.9282 16.7708 20.721C16.0371 19.9957 15.3033 19.1668 14.7794 18.2344L14.6745 18.0272C14.5698 17.9235 14.5698 17.82 14.4649 17.6128C14.4649 17.4056 14.4649 17.1984 14.5698 17.0948C14.5698 17.0948 14.989 16.5767 15.3033 16.266C15.5131 16.0587 15.6178 15.748 15.8275 15.5408C16.0371 15.2299 16.142 14.8155 16.0371 14.5047C15.9323 13.9866 14.6745 11.1893 14.3601 10.5677C14.1504 10.2569 13.9409 10.1534 13.6264 10.0497H12.4734C12.2637 10.0497 12.0542 10.1534 11.8444 10.1534L11.7395 10.2569C11.5299 10.3606 11.3203 10.5677 11.1107 10.6713C10.9011 10.8786 10.7962 11.0856 10.5866 11.293C9.85281 12.2254 9.43358 13.365 9.43358 14.5047C9.43358 15.3334 9.6432 16.1623 9.9577 16.8876L10.0626 17.1984C11.0059 19.1668 12.2637 20.9282 13.9409 22.4822L14.3601 22.8965C14.6745 23.2074 14.989 23.4146 15.1986 23.7253C17.3998 25.5903 19.9154 26.9371 22.7455 27.6624C23.06 27.7659 23.4792 27.7659 23.7937 27.8696H24.8418C25.3659 27.8696 25.9948 27.6624 26.4142 27.4552C26.7285 27.248 26.9381 27.248 27.1478 27.0408L27.3575 26.8335C27.5671 26.6263 27.7768 26.5227 27.9864 26.3155C28.196 26.1084 28.4056 25.9012 28.5105 25.6938C28.7201 25.2794 28.8249 24.7614 28.9297 24.2435V23.5183C28.9297 23.5183 28.8249 23.4146 28.6152 23.3111Z" fill="white"/>
</g>
</g>
<defs>
<filter id="filter0_d_130_1680" x="-2" y="-2" width="42.4678" height="42.3333" filterUnits="userSpaceOnUse" color-interpolation-filters="sRGB">
<feFlood flood-opacity="0" result="BackgroundImageFix"/>
<feColorMatrix in="SourceAlpha" type="matrix" values="0 0 0 0 0 0 0 0 0 0 0 0 0 0 0 0 0 0 127 0" result="hardAlpha"/>
<feOffset/>
<feGaussianBlur stdDeviation="1"/>
<feComposite in2="hardAlpha" operator="out"/>
<feColorMatrix type="matrix" values="0 0 0 0 0 0 0 0 0 0 0 0 0 0 0 0 0 0 0.15 0"/>
<feBlend mode="normal" in2="BackgroundImageFix" result="effect1_dropShadow_130_1680"/>
<feBlend mode="normal" in="SourceGraphic" in2="effect1_dropShadow_130_1680" result="shape"/>
</filter>
<clipPath id="clip0_130_1680">
<rect width="40" height="40" fill="white"/>
</clipPath>
</defs>
</svg>
